<?xml version="1.0" encoding="UTF-8" standalone="no" ?>
<!DOCTYPE svg PUBLIC "-//W3C//DTD SVG 1.1//EN" "http://www.w3.org/Graphics/SVG/1.1/DTD/svg11.dtd">
<svg xmlns="http://www.w3.org/2000/svg" xmlns:xlink="http://www.w3.org/1999/xlink" version="1.1" width="1080" height="1080" viewBox="0 0 1080 1080" xml:space="preserve">
<desc>Created with Fabric.js 5.2.4</desc>
<defs>
</defs>
<g transform="matrix(1 0 0 1 540 540)" id="9be5c848-4522-4ca6-9a01-f243db78af10"  >
<rect style="stroke: none; stroke-width: 1; stroke-dasharray: none; stroke-linecap: butt; stroke-dashoffset: 0; stroke-linejoin: miter; stroke-miterlimit: 4; fill: rgb(255,255,255); fill-rule: nonzero; opacity: 1; visibility: hidden;" vector-effect="non-scaling-stroke"  x="-540" y="-540" rx="0" ry="0" width="1080" height="1080" />
</g>
<g transform="matrix(1 0 0 1 540 540)" id="6b344789-c36c-435e-a234-470b0f0874a0"  >
</g>
<g transform="matrix(1 0 0 1 640.74 462.56)"  >
<path style="stroke: none; stroke-width: 1; stroke-dasharray: none; stroke-linecap: butt; stroke-dashoffset: 0; stroke-linejoin: miter; stroke-miterlimit: 4; fill: rgb(244,156,50); fill-rule: nonzero; opacity: 1;" vector-effect="non-scaling-stroke"  transform=" translate(-601.8, -423.54)" d="M 615.666748 450.296967 C 598.60968 413.57959 570.579712 392.132385 530.585754 387.019989 C 517.70166 385.372986 517.556519 385.667969 517.442078 372.752808 C 517.31073 357.936615 517.4422 343.118286 517.351501 328.301514 C 517.329834 324.75827 518.862122 323.726868 522.254822 323.858643 C 547.159607 324.826111 571.094421 330.005127 593.358276 341.314606 C 615.11145 352.364685 634.090332 367.142395 649.365356 386.354614 C 675.524597 419.25647 687.3479 456.928345 686.371643 498.754791 C 686.23999 504.39801 685.521484 510.044922 684.786682 515.652405 C 683.794067 523.227051 683.674438 523.225708 676.208313 523.224304 C 652.713318 523.21991 629.218384 523.191711 605.723389 523.195251 C 578.395935 523.199341 551.06842 523.23938 523.740967 523.235901 C 517.35907 523.235046 517.549438 523.183228 517.544067 516.855408 C 517.529846 500.220703 517.394653 483.585419 517.174011 466.952118 C 517.105774 461.810272 517.714539 460.993744 523.749023 460.980682 C 550.076538 460.923706 576.404297 460.918579 602.731934 460.893616 C 606.230774 460.890289 609.729614 460.882324 613.228455 460.87439 C 618.985413 460.861298 619.456482 460.210266 617.516663 454.808533 C 617.010803 453.399872 616.385986 452.033905 615.666748 450.296967 z" stroke-linecap="round" />
</g>
<g transform="matrix(1 0 0 1 532.29 652.54)"  >
<path style="stroke: none; stroke-width: 1; stroke-dasharray: none; stroke-linecap: butt; stroke-dashoffset: 0; stroke-linejoin: miter; stroke-miterlimit: 4; fill: rgb(244,156,50); fill-rule: nonzero; opacity: 1;" vector-effect="non-scaling-stroke"  transform=" translate(-493.34, -613.52)" d="M 595.396973 605.404297 C 608.735291 618.663879 621.703064 631.812073 634.81366 644.816223 C 637.611145 647.590942 636.863281 649.325623 634.348938 651.717834 C 608.320984 676.481812 577.642273 691.609436 541.980652 696.309021 C 491.89386 702.909668 446.950897 690.418579 408.639069 657.570984 C 377.927551 631.239746 359.074097 597.529175 352.560059 557.257385 C 351.310394 549.531677 350.100616 541.841431 350.084961 533.987549 C 350.078033 530.510925 350.840454 528.827454 354.963074 529.27832 C 364.923523 530.367737 374.920715 529.065796 384.907837 529.019165 C 392.726776 528.982544 400.529144 530.079102 408.353638 529.229248 C 411.551453 528.881897 412.180054 530.965759 412.353149 533.621521 C 412.93811 542.597656 414.063446 551.427124 416.756317 560.130493 C 422.562378 578.895874 432.569366 594.851318 446.966949 608.131348 C 463.89621 623.746582 483.787781 632.987732 506.67865 635.4552 C 538.849182 638.923035 566.671387 629.180664 590.368103 607.307129 C 591.692871 606.08429 592.883118 604.504333 595.396973 605.404297 z" stroke-linecap="round" />
</g>
<g transform="matrix(1 0 0 1 431.88 420.3)"  >
<path style="stroke: none; stroke-width: 1; stroke-dasharray: none; stroke-linecap: butt; stroke-dashoffset: 0; stroke-linejoin: miter; stroke-miterlimit: 4; fill: rgb(255,196,92); fill-rule: nonzero; opacity: 1;" vector-effect="non-scaling-stroke"  transform=" translate(-392.94, -381.28)" d="M 329.781067 392.877502 C 349.778351 351.567535 381.145416 323.999298 424.771454 310.406311 C 437.787079 306.350891 451.094757 304.876617 464.558563 303.973663 C 468.179962 303.730774 470.251068 304.853546 470.184479 308.954895 C 470.041199 317.783417 470.045959 326.616699 470.157806 335.445923 C 470.209625 339.536346 468.393127 340.819672 464.41217 341.024384 C 428.8508 342.853088 401.146667 359.497498 379.106537 386.674377 C 368.477997 399.779999 360.860748 414.489349 356.11203 430.630981 C 353.908081 438.122467 352.515472 445.873901 352.493408 453.698395 C 352.483093 457.341675 350.982788 458.62381 347.885437 458.617126 C 338.561005 458.597046 329.237122 458.389435 319.912567 458.33963 C 316.184448 458.319702 315.616364 456.092285 315.696686 453.051819 C 316.153534 435.7659 319.531708 419.053741 325.521088 402.861481 C 326.731232 399.589813 328.251007 396.432648 329.781067 392.877502 z" stroke-linecap="round" />
</g>
<g transform="matrix(1 0 0 1 459.71 448.4)"  >
<path style="stroke: none; stroke-width: 1; stroke-dasharray: none; stroke-linecap: butt; stroke-dashoffset: 0; stroke-linejoin: miter; stroke-miterlimit: 4; fill: rgb(255,196,92); fill-rule: nonzero; opacity: 1;" vector-effect="non-scaling-stroke"  transform=" translate(-420.77, -409.38)" d="M 446.120056 362.874695 C 452.600037 361.73526 458.650726 360.695404 464.833496 360.400177 C 468.424103 360.228729 470.200745 361.248108 470.147034 365.022919 C 470.064087 370.851837 470.053711 376.684753 470.177002 382.512482 C 470.245148 385.734497 468.7771 386.901825 465.691925 387.061157 C 434.383606 388.677887 414.599518 406.264099 402.17514 433.556396 C 399.370514 439.717255 397.80838 446.488464 398.196472 453.429352 C 398.405823 457.173676 396.789551 458.480469 393.189178 458.371033 C 387.531464 458.199127 381.864868 458.247131 376.203125 458.305206 C 372.801575 458.340118 371.10553 457.490173 371.391632 453.40213 C 373.947327 416.884277 390.603363 389.358948 422.916321 371.636078 C 430.116364 367.687042 437.725128 364.840576 446.120056 362.874695 z" stroke-linecap="round" />
</g>
<g transform="matrix(1 0 0 1 484 472.83)"  >
<path style="stroke: none; stroke-width: 1; stroke-dasharray: none; stroke-linecap: butt; stroke-dashoffset: 0; stroke-linejoin: miter; stroke-miterlimit: 4; fill: rgb(255,196,92); fill-rule: nonzero; opacity: 1;" vector-effect="non-scaling-stroke"  transform=" translate(-445.05, -433.82)" d="M 427.145142 459.012817 C 419.900879 458.87674 419.148804 458.341278 420.070465 451.864044 C 423.502258 427.74585 439.892975 411.23526 464.592804 408.586121 C 468.767487 408.138397 470.42276 409.694794 470.162567 413.862457 C 469.91449 417.837402 471.003876 422.20871 469.683563 425.720947 C 468.187805 429.700012 462.954407 428.128052 459.506714 429.490265 C 448.499634 433.839355 441.613525 441.79364 439.641846 453.212982 C 438.789764 458.147949 436.916168 459.408875 432.608978 459.070007 C 430.953186 458.939758 429.280182 459.028595 427.145142 459.012817 z" stroke-linecap="round" />
</g>
<g transform="matrix(0 0 0 0 0 0)"  >
<g style=""   >
</g>
</g>
<g transform="matrix(0 0 0 0 0 0)"  >
<g style=""   >
</g>
</g>
<g transform="matrix(0 0 0 0 0 0)"  >
<g style=""   >
</g>
</g>
<g transform="matrix(0 0 0 0 0 0)"  >
<g style=""   >
</g>
</g>
<g transform="matrix(0 0 0 0 0 0)"  >
<g style=""   >
</g>
</g>
<g transform="matrix(0 0 0 0 0 0)"  >
<g style=""   >
</g>
</g>
<g transform="matrix(NaN NaN NaN NaN 0 0)"  >
<g style=""   >
</g>
</g>
<g transform="matrix(NaN NaN NaN NaN 0 0)"  >
<g style=""   >
</g>
</g>
<g transform="matrix(NaN NaN NaN NaN 0 0)"  >
<g style=""   >
</g>
</g>
<g transform="matrix(NaN NaN NaN NaN 0 0)"  >
<g style=""   >
</g>
</g>
<g transform="matrix(NaN NaN NaN NaN 0 0)"  >
<g style=""   >
</g>
</g>
<g transform="matrix(NaN NaN NaN NaN 0 0)"  >
<g style=""   >
</g>
</g>
<g transform="matrix(NaN NaN NaN NaN 0 0)"  >
<g style=""   >
</g>
</g>
</svg>